<svg width="17" height="25" viewBox="0 0 17 25" fill="none" xmlns="http://www.w3.org/2000/svg">
<path d="M0.0378914 18.2833H6.021V21.9164C6.021 23.6194 4.69281 25 3.05441 25H0.0378914V18.2833Z" fill="#C4C4C4"/>
<path fill-rule="evenodd" clip-rule="evenodd" d="M8.03861 17.6705C9.20223 17.6769 12.1001 17.5825 14.5116 15.0759C17.8295 11.6271 17.8295 6.03543 14.5116 2.58661C11.1937 -0.862204 5.8143 -0.862204 2.4964 2.58661C0.0849047 5.09326 -0.00649646 8.08367 0.000291431 9.40294L0.0425989 17.6265L8.03861 17.6705ZM6.34635 11.074C7.51462 12.2884 9.40877 12.2884 10.577 11.074C11.7453 9.85966 11.7453 7.89078 10.577 6.6764C9.40877 5.46203 7.51462 5.46203 6.34635 6.6764C5.17807 7.89078 5.17807 9.85966 6.34635 11.074Z" fill="#C4C4C4"/>
</svg>
